<?xml version="1.0" encoding="UTF-8"?><svg id="Layer_1" xmlns="http://www.w3.org/2000/svg" viewBox="0 0 2000 2000"><path d="M1613.8,1000c-2.6,278.04-229.4,532.01-495.48,594.9-195.78,46.54-408.66-22.18-549.73-163.49-114.41-112.62-190.12-269.08-188.15-431.41-.41-278.84,232.83-541.53,499.32-604.62,157.91-37.22,329.11,1.86,459.96,96.21,162.1,115.14,277.17,306.54,274.09,508.41h0Zm-49.35,0c-3.12-326.6-239.12-557.18-564.46-559.78-282.09-1.55-505.17,166.8-550.21,450.3-26.1,162.59,7.49,339.11,111.5,469.5,152.72,194.6,430.67,257.09,659.19,172.3,226.08-83.42,347.81-296.69,343.98-532.31h0Z"/><path d="M901.9,654.84c3.65-49.01,18.29-102.4,61.14-131.84,42.76-28.97,94.95-16.29,123.72,25.47,11.94,16.99,19,37.47,22.05,57.64,7.01,46.96-4.33,94.36-21.96,137.24-6.1,19.02-16.8,52.58-24.82,76.57-25.86,75.16-52.93,157.99-71.84,234.75-9.82,38.28-19.38,80.93-28.33,119.64-1.32,5.74-5.6,24.19-6.97,29.96,0,0-1.39,5.05-1.39,5.05l-1.27,4.83c-11.65,46.09-18.86,102.78,2.45,145.96,4.43,8.63,10.62,16.07,18.13,21.28,14.86,11.09,31.95,10.86,49.09,1.77,20.09-10.76,35.64-31.15,44.98-52.67,5.22-11.75,8.66-24.23,11.41-36.84,17.28-79.74,33.1-160.89,51.25-240.45,16.2-67.67,31.09-135.94,61.71-199.29,6.7-13.38,15.45-25.63,24.71-37.43,24.19-30.88,57.92-59.92,99.06-63.71,64.76-6.18,113.12,51.83,123.75,110.68,11.77,57.92-10.33,120.51-62.62,151.06-23.26,13.83-49.9,21.17-76.63,23.01-21.35,.41-41.74-6.77-60.62-15.1-44.92-20.44-85.25-49.79-124.04-79.38-86.49-66.67-166.03-142.25-253.63-206.96-13.49-9.55-26.41-19.05-40.78-25.87-1.32-.59-2.62-1.09-3.87-1.52l-1.96-.62-2.28-.7c-21.11-6.26-46.66-6.17-64.87,4.35-14.22,8.63-15.48,20.63-10.42,37.26,6.15,19.04,20.03,36.9,35.26,51.36,8.46,8.2,18.83,15.99,28.41,23.04,142.52,104.92,284.28,212,434.71,305.51,15.89,9.68,31.85,19.44,47.97,28.73,4.8,2.55,9.71,5.29,14.4,8.13,38.54,22.91,75.73,56.87,84.07,104,7.35,39.06-10.79,80.56-48.5,97.33-30.29,14.25-68.17,8.07-95.78-4.9-19.29-8.78-35.32-19.51-51.49-31.71-7.36-6.45-14.83-12.86-22.34-19.1-106.37-84.7-219.83-160.32-335.29-231.93-11.57-7.05-23.17-14.01-34.84-20.79-5.9-3.27-11.48-7.11-17.82-9.53-6.18-2.69-12.39-5.28-18.62-7.7-12.03-4.64-24.69-9.16-37-11.86-4.59-.86-8.67-1.88-12.97-1.33-.18,.04-.23,.07-.52,.1l-1.17,.1c-26.23,2.28-54.68,8.95-71.82,30.08-22.91,30.2-11.28,75.87,8.73,105.58,17.8,26.24,44.94,41.54,77.24,33.73,22.87-5.49,45.44-19.98,61.32-38.04,64.66-79.43,90.23-242.04,103.83-343.48,6.85-53.57,12.6-107.61,17.03-161.44h0Zm40.28,3.8c-13.41,109.09-35.93,216.93-64.53,323.01-18.8,66.76-46.51,164.48-93.98,215.38-19.88,21.16-44.1,39.59-72.69,47.28-62.35,17.27-123.11-24.16-147.29-80.67-17.97-40.33-19.07-90.98,6.34-129.24,25.57-38.86,70.38-53.26,114.88-50.59,10.21,.59,20.08,1.65,29.92,3.63,6.23,1.54,12.34,3.98,17.8,6.51,13.42,6.29,25.44,13.52,37.8,21.09,5.96,3.68,11.84,7.4,17.68,11.14,5.68,4.02,12.05,6.73,18.05,10.11,112.02,61.3,239.75,148.58,348.38,216.82,19.52,12.36,39.55,24.07,59.72,35.41,0,0,1.13,.64,1.13,.64,.47,.27,0-.08,.37,.1l1.71,.68,.84,.34c12.79,5.67,26.83,10.46,39.58,13.01,13.6,2.61,27.68,4.19,40.37-.45,7.15-2.97,9.57-7.09,11.61-14.38,3.64-15.92-1.04-36.75-9.64-53.15-8.5-16.8-22.58-32.34-38.53-43.26-4.17-3.08-8.58-6.3-12.7-9.24-149.57-107.8-310.56-198.2-468.33-293.22-4.34-2.67-13.16-8.05-17.6-10.84-26.86-16.29-51.14-35.35-70.56-60.84-16.2-21.33-28.24-46.1-31.23-73.48-5.43-46.47,21.74-91.41,70.36-97.49,34.03-4.39,65.65,11.77,94.57,26.78,0,0,5.16,2.71,5.16,2.71l2.71,1.5,2.58,1.51c15.63,9.28,29.81,20.12,43.88,31.25,84.62,69.07,165.79,141.78,254.79,204.78,38.31,26.6,115.03,81.47,160.3,80.14,0,0,1.67-.14,1.67-.14l1.59-.21,1.49-.27c18.21-3.56,35.2-9.77,49.81-20.39,12.92-9.37,22.98-22.01,29-36.71,15.62-38.18,5.46-89.85-24.61-118.8-35.66-33.97-79.61-6.16-107.69,23.93-6.22,6.69-12.49,13.85-17.76,21.39-5.29,7.69-9.67,15.86-13.89,24.42-14.26,29.94-24.87,61.3-35.08,93.32-33.65,107.02-55.39,217.25-76.19,327.52-6.65,32.95-18.2,65.75-40.46,92.01-16.58,19.6-40.66,34.68-67,36.63-60.97,4.44-92.83-51.16-95.85-105.18-2.9-47.54,9.67-94.18,25.63-137.6,1.93-5.85,7.64-22.94,9.69-29.08,30.7-90.15,59.96-181.42,81.29-274.29,10.57-46.72,25.95-113.54,37.4-159.44,5.38-16.09,9.67-32.49,12.31-48.85,6.66-40.9,4.01-94.25-31.83-119.36-9.41-5.92-19.62-8.2-30.41-6.72-40.67,7.62-58.59,64.04-62.57,100.86h0Z"/><path d="M1754.66,1000c-2.48,31.27-7.05,63.53-12.47,94.34-6.13,33.93-13.1,67.77-21.96,101.08-7.75,29.27-12.13,59.4-20.87,88.44-7.11,23.33-17.74,45.45-31.4,65.66-13.57,20.3-30.71,38.19-47.07,55.94-8.17,8.81-16.17,17.71-23.8,26.93-51.51,65.91-108.28,126.93-174.84,178.51-57.08,45.28-122.98,78.91-190.34,107.23-45.48,19.44-93.87,33.85-143.47,37.24-49.47,3.71-99.28-.22-147.67-10.82-41.72-9.14-82.41-22.92-122.02-38.71-33.31-13.24-66.08-27.74-98.42-43.11-16.09-7.5-31.88-15.9-48.16-23.01-33.41-15.07-69.27-24.95-102.95-39.88-17.09-7.59-33.39-16.88-48.5-27.89-28.9-21.13-42.67-39.83-58.77-71.51-4.14-8.11-8.66-17.03-12.92-24.97-5.78-10.75-12.04-21.17-18.46-31.49-7.97-12.68-16.73-24.89-24.74-37.55-100.63-162.08-139.81-361.03-110.67-549.41,8.55-53.62,24.85-105.53,42.38-156.89,5.74-17.36,11.57-34.82,19.32-51.4,10.36-22.18,23.71-43.04,41.1-60.38,10.81-11.01,22-21.27,32.44-32.41,21.86-24.61,44.78-48.44,68.94-70.65,87.48-81.41,187.15-151.96,299.73-194.05,68.44-24.89,141.94-39.76,215-35.9,24.37,1.47,48.55,5.17,72.37,9.76,23.63,4.69,47.4,9.72,70.57,16.28,34.4,10.22,68.28,21.93,101.73,34.81,11.13,4.15,22.24,8.36,33.26,12.83,6.92,2.71,13.71,5.76,20.74,8.2,15.62,5.85,31.5,10.07,47.7,14.77,27.28,7.74,54.83,14.58,81.64,24.19,51.82,18.49,101.62,52.21,125.1,103.65,12.95,27.49,20.1,58.54,32.41,85.94,3.66,8.27,7.82,16.27,12.4,24.04,14.21,22.66,29.22,44.6,44.2,66.99,19.8,29.41,42.17,61.35,59.51,92.16,19.97,35,35.33,72.83,44,112.25,4.12,18.2,5.47,37.05,4.21,55.67-1.82,27.73-7.51,55.4-9.26,83.13h0Zm-33.64,0c-1.02-11.62-2.96-23.13-5.66-34.47-5.5-22.4-14.11-44.41-19.07-66.78-1.79-8-3.45-16.9-4.61-24.96-2.67-18.33-10.61-75.28-13.34-93.24-9.41-66.15-24.57-126.4-63.23-182.14-6.77-9.8-14.81-18.64-23.85-26.47-21.08-18.14-47.15-29.22-71.84-41.38-7.85-3.85-15.9-8.19-23.19-12.73-26.77-16.54-47.94-38.33-68.83-61.15-5.74-6.4-11.29-13.17-16.82-19.76-11.2-13.55-22.68-27.75-34.7-40.63-16.16-17.56-34.26-33.63-54.19-46.72-9.93-6.54-20.6-11.66-31.5-16.2-27.06-11.81-55.4-20.52-84.28-26.54-14.24-3.28-29.05-5.37-43.56-7.13-14.54-1.62-29.19-3.24-43.74-4.25-57.88-3.56-115.75,2.74-173.33,6.46-157.62,12.97-313.83,62.23-427.78,176.52-24.92,25.05-47.08,52.7-67.02,81.76-3.23,4.9-6.36,9.87-9.16,15.05-6.97,12.86-12.48,26.89-18.25,40.31-7.89,18.49-18.23,36.14-28.6,53.3-12.07,19.69-25.44,38.93-35.75,59.71-10.3,20.85-19.13,42.47-26.56,64.58-70.41,206.28-42.13,427.42,86.49,604.69,10.11,14.29,20.53,28.72,33.01,41.07,10.44,10.5,22,19.92,34.49,27.9,12.23,8.24,25.41,15.28,37.37,23.76,18.97,12.83,34.7,29.35,50.19,46.07,15.87,17.15,30.55,35.95,46.17,53.38,24.49,27.78,50.89,48.88,84.98,63.81,83.13,38.52,167.53,45.9,257.88,41.62,39.62-1.88,79.67-5.26,118.87-10.18,40.11-5.14,95.54-10.66,134.92-17.88,109.78-21.63,225-81.25,307.26-157.65,19.35-18.14,37.52-37.74,54.14-58.45,9.43-11.39,17.89-23.59,25.01-36.56,14.27-25.88,23.1-54.96,34.05-81.78,10.3-25.59,22.18-50.2,35.71-74.22,11.99-21.77,23.69-43.99,30.57-67.97,8.94-30.85,15.13-62.67,17.95-94.67,2.94-31.75,2.21-64.28-.2-96.06h0Z"/></svg>